<svg id="LOGO_White" data-name="LOGO White" xmlns="http://www.w3.org/2000/svg" width="2000" height="2000" viewBox="0 0 2000 2000">
  <defs>
    <style>
      .cls-1 {
        fill: #fff;
      }

      .cls-1, .cls-2, .cls-5, .cls-6, .cls-7, .cls-8 {
        fill-rule: evenodd;
      }

      .cls-3, .cls-4, .cls-5, .cls-8, .cls-9 {
        fill: none;
      }

      .cls-3, .cls-4, .cls-5, .cls-6, .cls-7, .cls-8, .cls-9 {
        stroke: #000;
      }

      .cls-3 {
        stroke-width: 12px;
      }

      .cls-4 {
        stroke-width: 15px;
      }

      .cls-5 {
        stroke-width: 2.5px;
      }

      .cls-6 {
        stroke-width: 1px;
      }

      .cls-7 {
        stroke-width: 20.46px;
      }

      .cls-8, .cls-9 {
        stroke-width: 5px;
      }
    </style>
  </defs>
  <path id="bg_white" data-name="bg white" class="cls-1" d="M1808.92,1335.11q8.31,482.25-473.86,473.94-335.085,346.89-670.15,0-482.178,8.31-473.864-473.94-346.83-335.13,0-670.253Q182.731,182.6,664.91,190.918q335.073-346.885,670.15,0,482.175-8.315,473.86,473.939Q2155.75,999.984,1808.92,1335.11Z"/>
  <path id="Side" class="cls-2" d="M1319.78,1772.56q-319.8,358.845-639.583,0Q200.514,1800.01,227.947,1320q-358.587-320.025,0-640.032Q200.513,199.948,680.2,227.4q319.79-358.837,639.583,0,479.685-27.453,452.25,452.567,358.575,320.015,0,640.032Q1799.465,1800.015,1319.78,1772.56ZM999.811,231.461c424.039,0,767.8,344,767.8,768.35s-343.76,768.349-767.8,768.349-767.8-344-767.8-768.349S575.767,231.461,999.811,231.461Z"/>
  <circle id="ring" class="cls-3" cx="1000" cy="1000" r="750"/>
  <circle id="Ring-2" data-name="Ring" class="cls-4" cx="1000" cy="1000" r="585"/>
  <path id="Polygon_1" data-name="Polygon 1" class="cls-5" d="M1049,556l-36-18-13,39-13-39-36,18,18-36.16L930,507l39-13-18-36,36,18,13-39,13,39,37-19-19,37,39,13-39,13Z"/>
  <path id="Polygon_2_copy_7" data-name="Polygon 2 copy 7" class="cls-6" d="M1000,507l-13-31,13-39v70Zm0,0-31-13-18-36Zm0,0-31,13-39-13h70Zm0,0-13,31-36,18Zm0,0,13,31-13,39V507Zm0,0,31,13,18,36Zm0,0,31-13,39,13h-70Zm0,0,13-31,37-19Z"/>
  <path id="dot" class="cls-7" d="M482,1378.16a25,25,0,1,1-25,25A25,25,0,0,1,482,1378.16Zm1079-44a26,26,0,1,1-26,26A26,26,0,0,1,1561,1334.16Z"/>
  <path id="DCT" class="cls-6" d="M454.832,1260.96q-10.293-21.72-30-27.81t-43.335,5.11q-22.833,10.815-29.222,28.8-6.357,18.045,4.529,41.02l2.319,4.72,5.114,10.1,14.83,31.28,4.1-1.94-0.465-1.32q-3.268-8.265-2.262-10.56t9.96-6.55l63.668-30.18q8.934-4.23,11.394-3.58t6.785,8.42l0.663,1.22,4.1-1.94Zm-88.659,54.57q-10.644-22.455-4.991-37.39t29.032-26.02q22.452-10.65,38.1-6.65t24.478,22.63q4.87,10.275,4.1,14.99-0.416,2.37-9.356,6.61l-76.431,36.24Zm26.9-198.9q-18.12-9.42-43.743-2.88-25.62,6.525-37.024,23.47t-5.575,39.8q5.827,22.875,23.949,32.28t43.743,2.88q25.622-6.525,37.024-23.47t5.575-39.8Q411.2,1126.05,393.074,1116.63Zm12.108,61.47q-11.088,12.3-34.739,18.32t-39.3.56q-15.651-5.475-19.654-21.17t7.123-27.99q11.122-12.3,34.773-18.33t39.268-.55q15.617,5.49,19.617,21.18T405.182,1178.1Zm-109.6-84.9q0.17-8.955,1.988-10.65t11.717-2.15l70.383-3.27q9.877-.45,11.893,1.1t3.011,10.38l0.137,1.39,4.537-.21-1.629-35.12-4.536.21-0.009,1.39q-0.174,8.88-2.037,10.62t-11.74,2.19l-75.578,3.51,84.341-37.47-0.251-5.42-86.3-29.964,74.407-3.451q9.878-.457,11.891,1.062t3.009,10.343l0.134,1.32,4.536-.21-1.914-41.269-4.536.21-0.008,1.394q-0.174,8.88-2.038,10.616t-11.739,2.194L304.87,985.21q-9.9.459-11.868-1.1t-2.963-10.384l-0.209-1.383-4.537.21,1.263,27.219,80.356,27.978-77.389,35.99,1.441,31.07,4.536-.21ZM396.087,919.448q-1.465,8.835-3.556,10.246t-11.93.436l-70.115-6.953q-9.861-.978-11.588-2.768t-1.426-10.74l-0.007-1.4-4.519-.448L288.754,950.1l4.519,0.448,0.282-1.371q1.455-8.76,3.5-10.214t11.909-.475l70.116,6.953q9.838,0.975,11.608,2.807t1.477,10.708l-0.064,1.392,4.519,0.449,4.192-42.274-4.519-.448Zm26.182-96.21-88.442-20.971q-9.642-2.288-11.114-4.292t0.021-10.834l0.18-1.388-4.418-1.047-7.791,32.853,4.419,1.048,0.445-1.249q2.629-8.559,4.854-9.726t11.866,1.12l63.427,15.04-95.758,39.094L294.3,886.759l4.418,1.047,0.461-1.312q2.636-8.585,4.813-9.715t11.892,1.172l68.558,16.257q9.693,2.3,11.138,4.3t0.008,10.916l-0.233,1.3,4.419,1.048,7.824-33-4.419-1.047-0.375,1.266q-2.721,8.613-4.909,9.75t-11.881-1.161l-68.487-16.24L421,828.575ZM438.7,762.826q-3.756,8.13-6.147,8.935t-11.618-2.745l-65.756-25.311q-9.249-3.56-10.438-5.744t1.476-10.734l0.364-1.35-4.238-1.632-15.26,39.645,4.238,1.631,0.636-1.246q3.728-8.059,6.088-8.918t11.609,2.7l65.756,25.311q9.228,3.552,10.447,5.787t-1.417,10.716L424.01,801.2l4.238,1.632,15.26-39.645-4.238-1.631Zm38.519-93.686q0.087,17.274-6.279,29.069-9.736,18.049-26.832,21.892t-37.85-7.355q-20.692-11.163-28.414-26.466t0.093-29.791q5.454-10.107,12.256-14t13.12-.486l3.9,1.879,1.336,0.61,4.277-7.928-18.242-9.842q-14.611,15.67-20.663,26.885-11.859,21.982-5.313,41.241t30.2,32.022q23.335,12.589,43.64,7.191t32.165-27.379q9.285-17.211,8.8-34.2ZM512.469,588.6l15.06,4.249q7.533,2.072,10.911,4.766,2.292,1.829-4.1,9.844l-0.822,1.031,3.55,2.831,25.072-31.441-3.551-2.831-1.107,1.271q-3.562,4-6.165,4.265t-13.06-2.358L443.14,553.01,439.956,557l47.167,86.522q5.931,11.007,6.179,12.75t-3.449,6.852l-0.9,1.248,3.55,2.831,17.533-21.988-3.55-2.831-0.731.916q-5.891,7.387-8.3,5.469-2.234-1.782-6.642-9.915l-7.359-13.878Zm-57.738-16.288,51.444,14.665-25.888,32.465Zm180.018-53.382-59.461-68.747q-6.483-7.5-6.5-9.982t6.355-8.775l0.957-1.02-2.97-3.434-25.538,22.088,2.971,3.434,1.092-.752q7.14-5.4,9.626-5.049t8.969,7.85l42.643,49.3L512.357,479.53,493.8,495.58l2.97,3.434,1.142-.8q7.16-5.421,9.587-5.063t8.959,7.907l46.092,53.291q6.518,7.534,6.52,10t-6.38,8.858l-0.949.918,2.971,3.435,25.648-22.184-2.971-3.435-1.045.807q-7.245,5.4-9.685,5.037T567.7,549.9l-46.045-53.235L630.6,522.514ZM766.33,427.053q-9.933,14.131-21.954,20.061-18.391,9.074-34.553,2.306t-26.6-27.918q-10.4-21.084-7.835-38.032t17.33-24.231q10.3-5.082,18.1-4.317t10.977,7.2q1.026,1.863,2.087,3.789l0.736,1.27L732.7,363.2,723.53,344.61q-20.986,4.311-32.415,9.95-22.4,11.051-28.217,30.542t6.075,43.6q11.732,23.778,31.411,31.136t42.077-3.691q17.538-8.652,26.98-22.786Zm102.142-30.932q8.963-18.35,1.8-43.8t-24.382-36.431Q828.67,304.91,805.957,311.3t-31.675,24.742q-8.962,18.351-1.8,43.8t24.382,36.431q17.219,10.98,39.931,4.586T868.472,396.121ZM807.316,409.75q-12.558-10.781-19.171-34.275T786.612,336.2q5.081-15.781,20.675-20.173t28.16,6.427q12.567,10.815,19.182,34.308T856.151,396q-5.091,15.749-20.684,20.137T807.316,409.75Zm163.8-36.273-7.645.831,0.083,1.464q0.651,10.908-1.106,12.608T947.5,391.513l-11.127,1.208q-9.727,1.056-11.359-.24t-2.683-10.98l-7.606-70.048q-1.07-9.852.327-11.909t10.218-3.6l1.368-.295-0.49-4.514-42.233,4.585,0.491,4.515,1.4-.006q8.873-.376,10.716,1.33t2.913,11.558l7.606,70.047q1.067,9.829-.362,11.937T896.5,398.745l-1.375.223,0.49,4.514,77.838-8.452Zm86.625,1.978-7.69-.219-0.12,1.462q-0.84,10.9-2.81,12.34t-15.23,1.07l-11.19-.318q-9.78-.277-11.22-1.784t-1.16-11.244l2-70.431q0.27-9.906,1.94-11.754t10.61-2.178l1.4-.106,0.13-4.539-42.464-1.206-0.129,4.539,1.387,0.185q8.841,0.836,10.435,2.776t1.312,11.847l-2,70.43q-0.281,9.883-1.983,11.777T980.38,390.33l-1.393.033-0.129,4.54,78.262,2.223Zm85.13,15.637-8.02-1.353-0.29,1.288q-2.115,9.447-4.1,10.413t-14.69-1.18l-11.41-1.926q-8.31-1.4-9.95-3.8t-0.22-10.771l5.72-33.872,19.57,3.3q6.495,1.1,7.8,2.386t0.68,6.781l-0.15,1.3,5.78,0.975,3.96-23.472-5.78-.975-0.29,1.288c-0.88,4.06-1.86,6.236-2.92,6.526s-3.76.071-8.1-.661l-19.58-3.231,7.22-42.754,23.32,3.937q10.695,1.8,11.46,2.75t-0.34,11.011l-0.08,1.4,8.01,1.353,3.16-18.706-73.09-12.335-0.75,4.478,1.35,0.375q8.64,2.05,9.95,4.193t-0.34,11.915l-11.73,69.476q-1.635,9.75-3.59,11.39t-10.79.742l-1.38-.159-0.76,4.477,77.06,13.006Zm99.9,24.43q3.24-9.447,5.36-10.683t10.86,1.056l1.27,0.357,1.47-4.3-40.19-13.741-1.47,4.3,1.22,0.5q8.31,3.534,9.24,5.814t-2.31,11.726l-6.89,20.167a63.31,63.31,0,0,1-15.2-2.64q-18.225-6.233-24.21-22.363t1.65-38.448q8.145-23.839,21.78-33.618t30.65-3.957q11.355,3.88,16.45,9.766t2.88,12.4c-0.48,1.386-.86,2.724-1.17,4.014l-0.38,1.417,7.69,2.63,6.38-18.643a105.642,105.642,0,0,0-14.65-9.418,110.742,110.742,0,0,0-16.24-7.022q-23.88-8.168-41.84,1.37t-26.7,35.11q-8.46,24.741.05,44.019t31.3,27.073q13.59,4.642,35.07,6.336Zm85.58,52.219-7.17-3.837-0.69,1.128q-5.01,8.281-7.2,8.565t-13.55-5.8l-10.2-5.461q-7.425-3.975-8.22-6.766t3.22-10.281L1300.75,415l17.5,9.367c3.87,2.074,6.09,3.657,6.64,4.749s0.04,3.3-1.52,6.642l-0.55,1.188,5.16,2.765,11.23-20.986-5.16-2.765-0.69,1.127q-3.195,5.352-4.85,5.256t-7.46-3.206l-17.53-9.3,20.46-38.227,20.86,11.164q9.555,5.116,9.98,6.258t-3.83,10.33l-0.52,1.3,7.16,3.837,8.96-16.724-65.35-34.98-2.15,4,1.16,0.785q7.545,4.7,8.1,7.146t-4.12,11.185l-33.25,62.119q-4.665,8.718-7.04,9.651-2.355.935-10.45-2.732l-1.27-.592-2.14,4,68.9,36.881Zm112.01,98.806q20.3-2.22,37.99-21.868t17.79-40.068q0.09-20.419-17.45-36.211t-37.83-13.57q-20.295,2.22-37.99,21.867t-17.79,40.068q-0.09,20.421,17.44,36.211T1440.36,566.547Zm-44.18-44.432q2.415-16.373,18.74-34.51t32.39-22.267q16.065-4.132,28.1,6.709t9.6,27.241q-2.43,16.4-18.76,34.538t-32.37,22.24q-16.035,4.1-28.07-6.736T1396.18,522.115Zm123.98,76.6q4.11,5.149,4.2,6.957c0.05,1.205-1.29,3.061-4.04,5.568l-1.04.926,3.66,4.578,18.71-14.95-3.66-4.578-1.07.766q-5.16,3.645-6.58,2.913c-0.96-.49-2.8-2.45-5.55-5.883l-12.39-15.507,34.39-27.477,14.18,17.738q6.75,8.457,6.72,9.708t-7.56,8.021l-1.04.926,5.07,6.351,14.82-11.841-45.67-57.163-3.55,2.835,0.76,1.178q5.07,7.287,4.62,9.758t-8.19,8.656L1471.9,592.18q-7.725,6.171-10.27,6.1t-8.53-6.634l-0.93-1.041-3.55,2.834,27.66,34.618,3.55-2.834-0.81-1.133c-2.06-2.976-3.16-4.54-3.28-4.692q-3.2-4-2.09-6.9t7.85-8.294l26.27-20.986Zm38.4,124.443q-8.775,4.224-11.4,3.577t-6.8-8.309l-1.44-2.806-4.09,1.969,19.98,41.513,4.09-1.968-1.3-2.87q-3.39-8.046-2.27-10.534t9.9-6.712l75.31-36.233,7.5,15.592a76.115,76.115,0,0,1,4,9.839q0.87,2.831-3.61,4.99-3.375,1.62-5.71,2.993l-1.29.7,3.33,6.93,17.89-8.606-40.33-83.82-17.89,8.606,3.34,6.93,1.35-.569q2.505-1.043,5.87-2.663,4.485-2.159,6.19.356a75.1,75.1,0,0,1,5.19,9.285l7.5,15.576Zm60.48,122.216-12.26,9.728q-6.09,4.9-10.25,6.06-2.82.789-5.59-9.086l-0.35-1.27-4.37,1.223,10.82,38.728,4.38-1.223-0.39-1.642q-1.155-5.227.15-7.494t9.56-9.212l77.72-61.213-1.38-4.918-97.76-12.373q-12.39-1.63-13.96-2.449t-3.53-6.806l-0.49-1.461-4.37,1.222,7.57,27.084,4.37-1.222-0.31-1.129q-2.55-9.1.42-9.928,2.745-.769,11.92.415l15.56,2.153Zm46.99-37.293-42,33.139-11.18-39.989Zm-17.62,122.732-44.74,33.819,2.64,27.512,4.52-.433-0.07-1.465q-0.225-3.879-.18-4.913a8.391,8.391,0,0,1,1.59-5.744q1.785-2.3,11.2-10.268l29.81-24.008q9.765,21.373,32.41,19.207,27.225-2.606,24.04-35.947l-0.7-5.8-1.62-13.04-2.47-25.859-4.52.433-0.01,1.4q0.255,8.877-1.47,10.7t-11.59,2.765l-70.14,6.711q-9.84.942-11.93-.514t-3.52-10.222l-0.21-1.378-4.52.433,3.87,40.391,4.52-.432-0.06-1.393q-0.195-7.413,1.67-9.1t11.63-2.621l28.65-2.741Zm54.3-17.669,0.98,10.264q1.23,12.793-3.62,18.619t-17.69,7.054q-27.045,2.589-29.76-25.747l-0.51-5.349Zm-79.98,161.964,0.43-7.68-1.46-.16q-10.86-1.14-12.26-3.15-1.38-2.01-.65-15.25l0.63-11.18q0.54-9.765,2.09-11.17t11.27-.85l70.35,3.93q9.9,0.555,11.7,2.27t1.88,10.67l0.07,1.4,4.53,0.25,2.38-42.41-4.54-.25-0.22,1.38c-0.72,5.87-1.74,9.33-3.06,10.35s-5.28,1.36-11.88.99l-70.35-3.94q-9.87-.555-11.72-2.3t-1.93-10.639v-1.393l-4.53-.254-4.38,78.176Zm-3.98,80.66-15.39,2.81q-7.68,1.455-11.9.53-2.85-.63-0.65-10.65l0.29-1.28-4.44-.98-8.67,39.26,4.44,0.98,0.43-1.63q1.44-5.16,3.66-6.54t12.76-3.63l97.39-17.44,1.1-4.98-80.44-56.93q-10.17-7.275-11.16-8.73c-0.66-.97-0.63-3.52.08-7.67l0.26-1.51-4.43-.98-6.07,27.46,4.44,0.98,0.25-1.15q2.04-9.225,5.04-8.56,2.79,0.615,10.33,5.98l12.72,9.22Zm59.02-10.79-52.65,9.48,8.95-40.55Zm-125.36,133.75q-1.755-17.19,3.42-29.55,7.95-18.9,24.58-24.39t38.39,3.63q21.675,9.105,30.85,23.58t2.8,29.66q-4.44,10.59-10.83,15.13t-13.01,1.76c-1.33-.49-2.69-0.99-4.06-1.49l-1.39-.48-3.49,8.31,19.12,8.02q13.02-17.025,17.95-28.77,9.66-23.04,1.27-41.56-8.385-18.54-33.17-28.94-24.45-10.26-44.13-2.91-19.7,7.35-29.35,30.38-7.575,18.03-5.43,34.89Z"/>
  <path id="Capas" class="cls-6" d="M586.72,1566.31q-16.953-3.315-27.262-11.88-15.777-13.11-16.176-30.62t14.669-35.66q15.021-18.09,31.546-22.65t29.189,5.97q8.834,7.335,11.312,14.77t-2.108,12.96q-1.284,1.695-2.611,3.45l-0.861,1.19,6.93,5.75,13.243-15.94q-12.483-17.415-22.286-25.56-19.213-15.96-39.385-13.33t-37.345,23.3q-16.941,20.385-15.649,41.36t20.5,36.93q15.043,12.5,31.8,15.37Zm79.029,25.26-2.242,15.48q-1.068,7.74-3.3,11.44-1.514,2.52-10.3-2.77l-1.129-.68-2.343,3.89,34.451,20.74,2.343-3.89-1.406-.93q-4.429-3.015-5.034-5.56t0.629-13.25l14.535-97.86-4.375-2.64-79.607,58.08q-10.137,7.32-11.832,7.8t-7.244-2.52l-1.355-.73-2.343,3.89,24.093,14.5,2.343-3.89-1-.6q-8.1-4.875-6.507-7.51,1.473-2.445,8.96-7.89l12.8-9.11Zm8.594-59.38-7.808,52.92-35.573-21.41Zm58.347,79.39q21.043,8.97,34.977,5.36t20.787-19.69q11.216-26.31-17.679-38.63l-4.671-1.83-9.909-3.82-29.428-12.54-1.781,4.17,1.224,0.68q7.923,4.02,8.7,6.4,0.772,2.4-3.113,11.51l-27.624,64.82q-3.876,9.09-6.154,10.23t-10.659-1.79l-1.309-.48-1.78,4.18,40.629,17.31,1.78-4.18-2.868-1.3q-7.846-3.825-8.645-6.43t3.021-11.57l10.309-24.19Zm18.633-55.35,9.538,4.06q11.724,4.995,14.6,12.11t-2.092,18.78q-5.829,13.68-15.316,17.75t-22.666-1.54l-4.969-2.11Zm88.994,104.25,2.106,15.51q1.1,7.725-.023,11.9-0.762,2.835-10.663.16l-1.273-.34-1.181,4.39,38.828,10.46,1.181-4.39-1.607-.51q-5.086-1.665-6.368-3.95t-3.043-12.92l-12.951-98.08-4.93-1.33-60.555,77.75q-7.731,9.825-9.23,10.74-1.5.93-7.659-.43l-1.5-.33-1.181,4.39,27.154,7.31,1.181-4.38-1.131-.31q-9.123-2.445-8.322-5.42,0.743-2.76,6.445-10.05l9.8-12.28Zm-8.073-59.45,7.053,53.03-40.092-10.8Zm58.579,104.86a103.317,103.317,0,0,0,16.152,3.33q14.965,1.9,26.094-5.71a28.889,28.889,0,0,0,12.847-21.06q1.291-10.11-3.375-17.49t-19.351-18.43l-7.071-5.33q-8.087-6.06-10.833-11.13t-1.837-12.2q1.07-8.355,6.564-12.86a16.7,16.7,0,0,1,13.287-3.5q9.317,1.185,13.319,4.62,4,3.42,3.22,9.53-0.231,1.815-.5,5.77l-0.1,1.24,8.064,1.03,2.444-19.11a120.564,120.564,0,0,0-14.125-5.31,78.537,78.537,0,0,0-12.461-2.74q-13.442-1.725-23.38,5.28a26.884,26.884,0,0,0-11.53,19.42q-2.109,16.5,20.807,33.6l7.071,5.34q9.372,6.96,12.247,12.2t1.833,13.37q-1.236,9.675-7.386,14.45-6.15,4.8-15.813,3.56a31.87,31.87,0,0,1-16.387-6.97,9.586,9.586,0,0,1-3.616-9.25c0.155-1.21.314-3.04,0.479-5.48l0.1-1.32-7.629-.97-2.648,20.7A73.351,73.351,0,0,0,890.823,1705.89ZM967,1716.54q-0.582,13.59-7.854,13.94l-0.191,4.46a18.227,18.227,0,0,0,12.538-5.18,18.752,18.752,0,0,0,5.071-7.15q1.173-3.435,1.571-12.73l0.674-15.73-18.075-.77-0.774,18.07,7.245,0.31Zm107.127-26.88q1.14,9.675-.33,11.95t-10.07,3.73l-3.12.44,0.53,4.51,45.76-5.38-0.53-4.51-3.14.3q-8.715.57-10.7-1.29c-1.32-1.25-2.37-5.09-3.12-11.54l-9.75-83,17.18-2.02a74.737,74.737,0,0,1,10.61-.58q2.955,0.09,3.54,5.04c0.29,2.47.62,4.6,0.97,6.37l0.24,1.45,7.64-.9-2.31-19.71-92.39,10.85,2.32,19.71,7.64-.89-0.1-1.47c-0.11-1.8-.32-3.94-0.61-6.42q-0.57-4.935,2.35-5.73a74.713,74.713,0,0,1,10.47-1.89l17.17-2.02Zm122.06-39.06,9.64,12.32q4.86,6.12,5.99,10.29c0.52,1.89-2.53,3.73-9.12,5.52l-1.27.35,1.19,4.38,38.8-10.56-1.19-4.38-1.65.37q-5.235,1.125-7.49-.2t-9.14-9.62l-60.67-78.14-4.93,1.34-13.06,97.67q-1.71,12.39-2.54,13.94c-0.56,1.03-2.83,2.2-6.83,3.49l-1.47.47,1.19,4.38,27.14-7.38-1.19-4.38-1.13.31q-9.12,2.475-9.93-.49-0.75-2.76.5-11.92l2.26-15.55Zm-36.96-47.26,32.84,42.23-40.06,10.9Zm103.56,7.49L1309,1642.6l25.28-11.18-1.84-4.15-1.37.53c-2.41.95-3.94,1.53-4.6,1.71a8.431,8.431,0,0,1-5.96.31q-2.745-.96-13.27-7.39l-32.19-20.71q17.19-16.005,7.99-36.81-11.07-25.02-41.69-11.47l-5.28,2.5-11.87,5.65-23.75,10.51,1.83,4.15,1.33-.43q8.34-3.045,10.62-1.99,2.28,1.08,6.28,10.13l28.51,64.44q3.99,9.045,3.28,11.48-0.735,2.445-8.59,6.57l-1.25.63,1.84,4.15,37.11-16.42-1.84-4.15-1.3.5q-6.975,2.52-9.16,1.28t-6.16-10.2l-11.65-26.33Zm-33.9-45.95,9.43-4.17q11.745-5.2,18.81-2.44t12.27,14.56q10.995,24.84-15.03,36.36l-4.92,2.17Zm163.74,4.98-6.56,4,0.69,1.29c3.48,6.39,4.94,10.36,4.36,11.88s-4.65,4.59-12.2,9.19l-9.56,5.82q-8.355,5.085-10.39,4.61t-7.09-8.81l-36.65-60.18q-5.145-8.46-4.76-10.92t7.72-7.6l1.11-.85-2.36-3.87-36.28,22.09,2.36,3.88,1.26-.6q7.875-4.11,10.27-3.35t7.55,9.22l36.64,60.18q5.145,8.445,4.75,10.96t-7.67,7.63l-1.15.78,2.36,3.88,66.88-40.72Zm49.99-54.48,13.81,7.35q6.93,3.615,9.65,6.97,1.86,2.28-6.1,8.75l-1.02.83,2.87,3.53,31.18-25.4-2.87-3.52-1.35,1q-4.335,3.165-6.93,2.86-2.61-.285-12.26-5.08l-87.17-46.79-3.96,3.22,27.71,94.57q3.465,12.015,3.33,13.77-0.12,1.755-4.82,5.96l-1.15,1.03,2.87,3.52,21.8-17.76-2.87-3.52-0.9.74q-7.335,5.97-9.27,3.58-1.815-2.22-4.39-11.1l-4.24-15.12Zm-52.96-28.18,47.15,25.25-32.19,26.23Zm158.02-49.56q-4.05,16.785-13.06,26.72-13.77,15.18-31.29,14.83-17.52-.375-34.99-16.21-17.415-15.8-21.25-32.5t7.23-28.9q7.71-8.5,15.25-10.66t12.85,2.67q1.65,1.35,3.34,2.76l1.15,0.91,6.05-6.68-15.36-13.92q-17.94,11.715-26.5,21.15-16.77,18.51-15.03,38.77t21.65,38.33q19.65,17.8,40.65,17.43t37.78-18.88q13.14-14.49,16.74-31.1Z"/>
  <path id="Ribbon_1" data-name="Ribbon 1" class="cls-6" d="M876,1316h238v-44h256c-1.62,4.07-14.15,36.65-18.21,47.11,2.58,6.46,16.41,43.84,19.21,50.89H1176v58H818v-58H630c1.347-3.01,24.179-48.2,25.486-50.91-1.431-2.8-19.341-35.2-25.486-46.09H876v43Zm-58,49v-50c10.285-8.04,42.446-33.63,47-37H639c1.15,2.13,21.745,38.72,23,41-1.462,3.42-21.979,42.31-24,46H818Zm358,0h187c-4.16-9.76-14.42-39.36-17-46,4.91-12.64,14.96-38.99,16-42H1127c2.56,2.09,42.85,33.06,49,38C1175.99,1330.47,1176,1361.79,1176,1365Zm-56-49h50c-4.49-3.62-40.49-31.84-50-39v39Zm-249,0v-38c-4.6,3.44-40.122,32.52-47,38C832.1,1315.96,862.868,1316,871,1316Zm-48,5v102c112.134,0,235.18.38,347,0V1321H823Z"/>
  <path id="patria" class="cls-6" d="M677.341,740.757q10.522,0,15.768-4.038t5.246-12.082q0-13.158-14.448-13.158l-2.308.067-4.882.169H662V713.8l0.64,0.067q4.075,0.269,4.834,1.14t0.758,5.43v32.411q0,4.548-.758,5.441t-4.834,1.163l-0.64.033v2.089h20.315v-2.089l-1.448-.033q-4.01-.2-4.818-1.163t-0.809-5.441v-12.1h2.1Zm-2.1-26.785h4.77q5.862,0,8.363,2.493t2.5,8.322q0,6.84-3.279,10.276t-9.869,3.437h-2.485V713.972Zm13.4,115.043,2.791,6.635a14.4,14.4,0,0,1,1.416,5.291q0,1.349-4.717,1.348h-0.607v2.089h18.5v-2.089l-0.774-.033a5.092,5.092,0,0,1-3.3-.994,25.3,25.3,0,0,1-2.9-5.374l-17.491-42.013h-2.349l-17.591,41.777a36.863,36.863,0,0,1-2.813,5.879q-0.557.591-3.453,0.725l-0.708.033v2.089h12.936v-2.089h-0.539q-4.346,0-4.346-1.415a17.641,17.641,0,0,1,1.661-5.232l2.881-6.627h21.405Zm-10.7-25.437,9.479,22.708h-19.1Zm-1.18,114.874q0,4.482-.791,5.441t-4.8,1.163l-1.449.033v2.089h21.192v-2.089l-1.449-.033q-4.01-.2-4.818-1.163t-0.808-5.441V880.01h7.959a34.857,34.857,0,0,1,4.877.3q1.347,0.2,1.348,2.494,0,1.717.1,2.964l0.033,0.674h3.538v-9.13H658.9v9.13h3.538l0.033-.674q0.068-1.245.068-2.964,0-2.292,1.381-2.494a34.465,34.465,0,0,1,4.885-.3h7.951v38.442Zm0.608,69.559,13.526,21.969h12.713v-2.09l-0.674-.03c-1.19-.05-1.943-0.09-2.257-0.14a3.818,3.818,0,0,1-2.56-.98,48.191,48.191,0,0,1-4.212-5.58l-9.687-14.7q10.215-3.533,10.215-14,0-12.583-15.407-12.584l-2.686.067-6.042.169H658.346V962.2l0.64,0.067q4.077,0.269,4.835,1.14t0.758,5.43v32.409c0,3.03-.253,4.85-0.758,5.44s-2.117.99-4.835,1.17l-0.64.03v2.09h18.665v-2.09l-0.64-.03q-3.4-.24-4.094-1.17c-0.46-.61-0.69-2.43-0.69-5.44V988.011h5.779Zm-5.712-25.639H676.4q5.913,0,8.367,2.477t2.456,8.406q0,12.5-13.094,12.5h-2.472V962.372Zm17.789,128.288q-4.11-.27-4.851-1.17c-0.5-.59-0.742-2.41-0.742-5.44v-32.41q0-4.56.742-5.43t4.851-1.14l0.64-.07v-2.09H670.542V1045l0.641,0.07q4.075,0.27,4.834,1.14t0.758,5.43v32.41c0,3.03-.252,4.85-0.758,5.44s-2.117.99-4.834,1.17l-0.641.03v2.09h19.541v-2.09Zm-0.8,69.55,2.791,6.64a14.413,14.413,0,0,1,1.416,5.29q0,1.35-4.717,1.35h-0.607v2.09h18.5v-2.09l-0.774-.03a5.1,5.1,0,0,1-3.3-1,25.14,25.14,0,0,1-2.9-5.37l-17.491-42.02h-2.349l-17.591,41.78a36.592,36.592,0,0,1-2.813,5.88c-0.371.39-1.522,0.64-3.453,0.73l-0.708.03v2.09h12.936v-2.09h-0.539c-2.9,0-4.346-.47-4.346-1.42a17.669,17.669,0,0,1,1.661-5.23l2.881-6.63h21.405Zm-10.7-25.43,9.479,22.71h-19.1Z"/>
  <path id="sapientia" class="cls-6" d="M1302.41,732.456a32.165,32.165,0,0,0,5.15.39,11.429,11.429,0,0,0,7.89-2.811,9.059,9.059,0,0,0,3.15-7.057,8.06,8.06,0,0,0-1.74-5.3q-1.74-2.112-6.75-4.957l-2.41-1.377a12.048,12.048,0,0,1-3.81-3.029,6.237,6.237,0,0,1-1.05-3.718,5.941,5.941,0,0,1,1.53-4.257,5.209,5.209,0,0,1,3.99-1.618,8.043,8.043,0,0,1,4.32.906,3.149,3.149,0,0,1,1.38,2.834c0,0.383.02,0.987,0.07,1.814l0.02,0.39h2.55v-6.036a37.826,37.826,0,0,0-4.6-1.09,24.5,24.5,0,0,0-3.99-.356,10.035,10.035,0,0,0-7.05,2.571,8.4,8.4,0,0,0-2.81,6.494q0,5.209,7.8,9.616l2.41,1.377a13.526,13.526,0,0,1,4.29,3.305,6.834,6.834,0,0,1,1.1,4.084,5.981,5.981,0,0,1-6.49,6.518,9.949,9.949,0,0,1-5.37-1.515,2.989,2.989,0,0,1-1.49-2.731c0-.382-0.03-0.956-0.07-1.721l-0.03-.413h-2.41v6.541A23.209,23.209,0,0,0,1302.41,732.456Zm11.26,45.476,1.9,4.52a9.9,9.9,0,0,1,.97,3.6c0,0.612-1.08.918-3.22,0.918h-0.41V788.4h12.6v-1.423l-0.53-.023a3.5,3.5,0,0,1-2.25-.677,17.269,17.269,0,0,1-1.97-3.66L1308.85,754h-1.6l-11.99,28.457a25.082,25.082,0,0,1-1.91,4,4.272,4.272,0,0,1-2.36.493l-0.48.023V788.4h8.81v-1.423h-0.36c-1.98,0-2.96-.321-2.96-0.964a11.829,11.829,0,0,1,1.13-3.564l1.96-4.514h14.58Zm-7.29-17.326,6.46,15.467h-13.01Zm-0.4,70.009q7.155,0,10.74-2.751,3.57-2.751,3.57-8.23,0-8.963-9.84-8.962l-1.57.046-3.33.114h-10.02v1.423l0.43,0.046q2.775,0.183,3.3.776,0.51,0.594.51,3.7v22.077q0,3.1-.51,3.707t-3.3.791l-0.43.023V844.8h13.84v-1.423l-0.99-.023c-1.82-.091-2.92-0.355-3.28-0.791s-0.55-1.672-.55-3.707v-8.238h1.43Zm-1.43-18.245h3.24q4.005,0,5.7,1.7c1.14,1.133,1.7,3.022,1.7,5.669q0,4.659-2.23,7t-6.72,2.341h-1.69V812.37Zm9.67,87.381c-1.87-.122-2.97-0.386-3.31-0.791s-0.5-1.641-.5-3.707V873.176c0-2.07.17-3.3,0.5-3.7s1.44-.654,3.31-0.776l0.44-.046v-1.423h-13.32v1.423l0.44,0.046c1.85,0.122,2.95.381,3.29,0.776s0.52,1.629.52,3.7v22.077c0,2.066-.17,3.3-0.52,3.707s-1.44.669-3.29,0.791l-0.44.023V901.2h13.32v-1.423Zm5.94,51.627h-2.54l-0.03.413c-0.1,2.02-.35,3.163-0.72,3.431s-1.91.4-4.6,0.4h-3.63q-2.64,0-3.27-.654t-0.63-3.317V940.89h6.22a5.691,5.691,0,0,1,2.54.33,2.967,2.967,0,0,1,.56,2.06l0.02,0.41h1.84v-7.459h-1.84l-0.02.414c-0.06,1.3-.25,2.023-0.56,2.168a8.364,8.364,0,0,1-2.54.218l-6.22.023V925.468h7.41q3.4,0,3.69.253c0.19,0.168.34,1.308,0.47,3.419l0.04,0.436h2.55v-5.944h-23.22v1.423l0.43,0.046q2.775,0.183,3.3.776t0.51,3.7v22.077q0,3.1-.51,3.707-0.525.607-3.3,0.791l-0.43.023V957.6h24.48v-6.219Zm-0.19,63.082V985.976c0-2.07.17-3.3,0.5-3.7s1.44-.654,3.31-0.776l0.43-.046v-1.423h-10.58v1.423l0.42,0.046c1.86,0.122,2.97.38,3.31,0.776s0.52,1.629.52,3.7V1006.4l-18.84-26.368h-7.69v1.423l0.43,0.046c1.88,0.122,2.98.377,3.31,0.765s0.51,1.625.51,3.71v22.074c0,2.08-.17,3.32-0.51,3.71s-1.44.65-3.33,0.79l-0.41.02V1014h10.63v-1.43l-0.42-.02c-1.88-.14-2.99-0.4-3.32-0.79s-0.51-1.63-.51-3.71V986l20.52,28.461h1.72Zm-14.39,49.99c0,2.04-.18,3.27-0.54,3.71s-1.45.7-3.27,0.79l-0.99.02v1.43h14.44v-1.43l-0.99-.02c-1.82-.09-2.91-0.35-3.28-0.79s-0.55-1.67-.55-3.71v-26.18h5.42a24.977,24.977,0,0,1,3.32.2c0.61,0.1.92,0.66,0.92,1.7,0,0.78.02,1.46,0.07,2.02l0.02,0.46h2.41v-6.22h-29.14v6.22h2.41l0.02-.46c0.03-.56.04-1.24,0.04-2.02,0-1.04.32-1.6,0.95-1.7a24.546,24.546,0,0,1,3.32-.2h5.42v26.18Zm8.64,60.9c-1.87-.12-2.97-0.38-3.31-0.79s-0.5-1.64-.5-3.71v-22.07c0-2.07.17-3.31,0.5-3.7s1.44-.66,3.31-0.78l0.44-.04v-1.43h-13.32v1.43l0.44,0.04c1.85,0.12,2.95.38,3.29,0.78s0.52,1.63.52,3.7v22.07c0,2.07-.17,3.3-0.52,3.71s-1.44.67-3.29,0.79l-0.44.02v1.43h13.32v-1.43Zm-0.55,47.38,1.9,4.52a9.89,9.89,0,0,1,.97,3.61c0,0.61-1.08.91-3.22,0.91h-0.41v1.43h12.6v-1.43l-0.53-.02a3.493,3.493,0,0,1-2.25-.68,17.269,17.269,0,0,1-1.97-3.66l-11.91-28.61h-1.6l-11.99,28.45a25.007,25.007,0,0,1-1.91,4.01,4.253,4.253,0,0,1-2.36.49l-0.48.02v1.43h8.81v-1.43h-0.36c-1.98,0-2.96-.32-2.96-0.96a11.8,11.8,0,0,1,1.13-3.56l1.96-4.52h14.58Zm-7.29-17.32,6.46,15.46h-13.01Z"/>
  <path id="fides" class="cls-6" d="M925.2,644.93q3.516,0,4.3.566t0.977,3.536l0.039,0.742h3.125V637h-3.125l-0.039.7q-0.2,3.359-.977,3.71a14.681,14.681,0,0,1-4.3.352H914.609V618.289h12.11q5.773,0,6.284.43t0.825,5.82l0.039,0.743H938.2V615.164H899.18v2.422l0.742,0.078q4.725,0.311,5.605,1.322t0.879,6.3V662.86q0,5.272-.879,6.308t-5.605,1.348l-0.742.039v2.422h23.632v-2.422l-0.742-.039q-2.891-.2-3.047-0.195-2.734,0-3.574-1.426t-0.84-6.035V644.93H925.2Zm39.766,25.586q-4.767-.312-5.625-1.348t-0.859-6.308V625.282q0-5.286.859-6.3t5.625-1.322l0.742-.078v-2.422H943.047v2.422l0.742,0.078q4.727,0.311,5.605,1.322t0.879,6.3V662.86q0,5.272-.879,6.308t-5.605,1.348l-0.742.039v2.422H965.7v-2.422Zm31.719,2.461q12.81,0,20.25-8.106t7.44-22.05q0-13.478-7.2-20.664-7.245-7.188-20.8-7.188l-2.8.039-6.038.156H969.062v2.422l0.743,0.078q4.725,0.311,5.605,1.322t0.879,6.3V662.86q0,5.272-.879,6.308t-5.605,1.348l-0.743.039v2.422H996.68Zm-6.047-55.195q13.254,0,19.157,6.137t5.91,19.937q0,13.253-5.5,19.878t-16.5,6.626q-6.064,0-8.163-1.447-1.049-.743-1.049-6.02V617.782h6.141Zm81.557,44.609h-4.34l-0.04.7q-0.27,5.157-1.23,5.84t-7.83.684h-6.17c-3,0-4.85-.372-5.57-1.114s-1.07-2.623-1.07-5.644V644.539h10.58q3.525,0,4.32.563t0.96,3.5l0.04,0.7h3.12V636.61h-3.12l-0.04.7q-0.165,3.321-.96,3.691a14.154,14.154,0,0,1-4.32.371l-10.58.039V618.289h12.61q5.79,0,6.27.43,0.5,0.43.8,5.82l0.08,0.743h4.34V615.164h-39.53v2.422l0.74,0.078q4.725,0.311,5.61,1.322t0.87,6.3V662.86q0,5.272-.87,6.308t-5.61,1.348l-0.74.039v2.422h41.68V662.391Zm14.12,11.367a54.582,54.582,0,0,0,8.77.664,19.44,19.44,0,0,0,13.42-4.785,15.41,15.41,0,0,0,5.37-12.012,13.692,13.692,0,0,0-2.97-9.023q-2.97-3.594-11.49-8.438l-4.1-2.343a20.322,20.322,0,0,1-6.48-5.157,10.555,10.555,0,0,1-1.8-6.328,10.139,10.139,0,0,1,2.6-7.246,8.932,8.932,0,0,1,6.8-2.754c3.33,0,5.79.515,7.35,1.543a5.352,5.352,0,0,1,2.35,4.825c0,0.651.04,1.679,0.13,3.085l0.03,0.665h4.33V616.18a63.617,63.617,0,0,0-7.83-1.855,41.484,41.484,0,0,0-6.77-.606,17.142,17.142,0,0,0-12.02,4.375,14.331,14.331,0,0,0-4.78,11.055q0,8.868,13.28,16.367l4.1,2.344q5.43,3.046,7.31,5.625a11.585,11.585,0,0,1,1.87,6.953q0,5.2-2.93,8.144t-8.12,2.95a16.939,16.939,0,0,1-9.14-2.578,5.1,5.1,0,0,1-2.54-4.649q0-.976-0.12-2.93l-0.04-.7h-4.1v11.133A39.458,39.458,0,0,0,1086.31,673.758Z"/>
  <path id="_1946" data-name="1946" class="cls-6" d="M901.947,1344.81v2.56l4.157-.76a41.51,41.51,0,0,1,5.753-.84q1.092,0,1.554,1.62a23.247,23.247,0,0,1,.462,5.61v39.59q0,7.14-1.6,7.56a21.815,21.815,0,0,1-5.417.67l-4.913.04v2.61h32.124v-2.61l-4.913-.04a21.826,21.826,0,0,1-5.417-.67q-1.6-.42-1.6-7.56v-51.82Zm76.475,49.95q-4.065,7.71-11.438,7.7a13.62,13.62,0,0,1-8.679-2.95,2.894,2.894,0,0,1-1.116-1.58,34.972,34.972,0,0,1-.448-4.7l-0.036-.89h-4.157v9.91a31.923,31.923,0,0,0,13.689,2.77q11.969,0,18.519-8.8t6.551-24.83q0-15.165-5.711-23.41-5.712-8.265-16.209-8.26a18.891,18.891,0,0,0-14.488,6.35,22.234,22.234,0,0,0-5.837,15.66q0,8.565,5.172,14.02a17.535,17.535,0,0,0,13.328,5.46,17.091,17.091,0,0,0,8.3-2.03,20.154,20.154,0,0,0,6.622-6.07Q982.488,1387.075,978.422,1394.76Zm0.119-20.27a13.064,13.064,0,0,1-9.784,3.78,9.491,9.491,0,0,1-8.462-4.57c-1.973-3.06-2.96-7.42-2.96-13.11q0-8.6,2.9-13.39a9.028,9.028,0,0,1,8.105-4.79q6.173,0,10.036,6.13t3.863,15.92A13.728,13.728,0,0,1,978.541,1374.49Zm49.049,18.1q0,6.045-.9,6.95c-0.61.6-2.99,1.03-7.16,1.28l-0.76.04v2.61h23.81v-2.61l-0.76-.04q-5.16-.375-6.09-1.45-0.915-1.065-.92-6.78v-6.72h8.32v-6.25h-8.32v-39.35h-4.66l-31.075,41.45v4.15h28.515v6.72Zm0-44.65v31.68h-23.85Zm39.23,2.04q4.05-7.7,11.38-7.69a13.469,13.469,0,0,1,8.68,2.98,2.917,2.917,0,0,1,1.07,1.57,34.213,34.213,0,0,1,.48,4.68l0.09,0.89h4.16v-9.91a31.656,31.656,0,0,0-13.65-2.78q-11.97,0-18.52,8.8t-6.55,24.88q0,15.165,5.71,23.39t16.21,8.23a18.931,18.931,0,0,0,14.47-6.32,22.138,22.138,0,0,0,5.85-15.64q0-8.61-5.16-14.05a17.561,17.561,0,0,0-13.31-5.43,17.218,17.218,0,0,0-8.28,2.01,20.188,20.188,0,0,0-6.67,6.09Q1062.78,1357.67,1066.82,1349.98Zm-0.1,20.27a13.086,13.086,0,0,1,9.79-3.78,9.467,9.467,0,0,1,8.42,4.6q2.955,4.605,2.96,13.12,0,8.565-2.9,13.38a8.994,8.994,0,0,1-8.06,4.81q-6.18,0-10.04-6.13t-3.86-15.96A13.761,13.761,0,0,1,1066.72,1370.25Z"/>
  <path id="DCT_Crest_1" data-name="DCT Crest 1" class="cls-2" d="M1223,713v464c-8.39,3.6-226.046,97.78-225.564,98C942.2,1250.19,777.257,1175.35,770,1172V713C782.4,712.842,1183.93,713,1223,713Zm-5,458v-10c-0.03-17.55,0-201.066,0-205,1.14-21.585-28.47-24.893-29.64-29.1-2.21-7.907,1.42-11.136,0-16.908-3.29-13.333-15.97-16.237-32.82-12.93a15.532,15.532,0,0,0-.99,4.973c4.24,3.223,7.13,9.335,7.95,15.914,0.47,8.5-30.5,5.967-42.76,5.967-31.14,0-84.81,0-99.24.515C1053.63,887.108,1210.25,727.747,1217,721H1015c-35.463,0-27.772,20.941-37.452,25.878-2.825,1.342-8.836-1.725-13.921,0-6.975,2.365-27.761,26.348-12.927,33.816,6.572,3.787,21.192-11.756,26.3-1.694,0,85.261-.009,128.061,0,144-13.839-13.842-167.032-162.024-202-197,0-3.67,1,135.72,1,216,4.006,4.1,7.977,11.335,12.617,14.734,6.691,4.9,17.166,2.755,17.9,13.924,5.562,2.14.6,32.472,31.82,26.854,0.331-.994,1.076-1.939.994-2.984-0.59-8.037-15.537-23.812,1.989-24.864H970.587C936.126,1004.13,776.783,1166.13,775,1168c2.209,0.95,185.193,82.53,223,100,2.07-3.34,6.22-9.02,8.38-11.9,3.9-5.16,2.86-13.95,8.95-16.9,3.36-1.95,9.42.43,13.93-1,12.47-3.96,20.47-15.73,16.9-32.82-3.07-1.94-3.41-2.87-8.95-2.98-2.42,3.13-6.24,5.08-8.95,7.95-2.74-.99-9.94-1.22-9.94-3.98V970.658C1152.64,1101.35,1215.07,1167.9,1218,1171ZM1004.4,949.772h199.86c2.23,1.326,1.99.8,1.99,3.978-1.92,1.99-1.09,2.859-2.98,3.979-5.76,3.412-13.43,1.183-15.91,7.956-1.12,1.8-1.16,18.782-1.99,22.876-7.62,5.012-11.34,9-24.86,8.951a15.811,15.811,0,0,1-.99-4.973c3.21-4.233,7.98-14.815,4.97-18.9-1.03-3.243-3.76-4.891-6.96-5.967-4.99-3.1-129.11-1-137.22-1C1012.59,958.453,1004.44,949.772,1004.4,949.772ZM999,939V733c0-2.3,3.34-1.638,6.39-2.035,3.13,4.472,3.51,15.664,8.95,17.9,9.71,5.613,22.67-3.413,26.85,7.957,3.6,3.959,4.09,11.273,3.98,18.9-1,.331-1.18,1.947-2.17,2.279-5.27,3.024-9.86-4.115-13.74-5.263-4.39-1.295-10.91.685-11.26,2.263-1.23,10.754-1,27.01-1,41V925C1011.75,929.394,1005.25,934.938,999,939Zm-210,4c-1.466-2.5-.7-3.379.624-5.135,6.116-1.718,15.133-2.992,17.886-7.984,2.647-2.706.345-17.319,3.49-25.881,7.876-6.609,8.007-9.1,25.347-7.935,4.281,1.223,2,2.684,1,3.978-0.462.235-8.087,11.1-5.967,15.913,0.773,4.052,2.215,7.821,4.972,9.946,6.515,2.264,24.821,1,34.8,1h74.578c11.216,0,20.666-.229,31.272.1,5.43,5.43,12.825,13.825,15,16H968c-13.588.341-26.611,0-41,0H789Zm210,11v300c-1.744.63-4.519,0.31-5.542,1.11-1.988-.66-3.978-1.33-5.966-1.99-1.865-4.68-2.2-13.86-5.966-16.91-5.522-3.89-10.54,1.08-15.91,0-9.823-1.98-18.295-15.04-15.91-26.85,2.542-1.47,3.128-2.39,6.96-2.99a28.018,28.018,0,0,0,12.927,5.97c2.449-1.97,4.474-1.84,5.966-4.97,4.907-10.92,3.441-51.73,3.441-65.37V969C986.25,964.209,993.266,958.148,999,954Z"/>
  <path class="cls-8" d="M613.937,671h135.82v537H613.937V671Z"/>
  <path class="cls-8" d="M681.835,672V636H784.844m425.7,0h103.5v36"/>
  <path class="cls-8" d="M1245.12,672h135.82v537H1245.12V672ZM785.7,639"/>
  <rect class="cls-9" x="783.719" y="586" width="424.441" height="108"/>
</svg>
